<?xml version="1.0" encoding="UTF-8"?>
<svg id="Layer_1" xmlns="http://www.w3.org/2000/svg" version="1.1" viewBox="0 0 3076 2856">
  <!-- Generator: Adobe Illustrator 29.0.0, SVG Export Plug-In . SVG Version: 2.1.0 Build 186)  -->
  <defs>
    <style>
      .st0, .st1, .st2, .st3, .st4, .st5, .st6 {
        fill: #fff;
      }

      .st7, .st8, .st2, .st9, .st10, .st3, .st4, .st11, .st12, .st6, .st13 {
        stroke-linejoin: round;
      }

      .st7, .st1, .st2, .st9, .st14, .st12, .st13 {
        stroke: #fff;
      }

      .st7, .st9, .st4, .st5, .st11, .st13 {
        stroke-width: 28px;
      }

      .st8 {
        fill: #d52b1e;
      }

      .st8, .st2, .st10, .st3, .st12, .st6 {
        stroke-width: 70px;
      }

      .st8, .st10, .st15, .st3, .st4, .st11 {
        stroke: #000;
      }

      .st1, .st15, .st5, .st14, .st16 {
        stroke-miterlimit: 10;
      }

      .st1, .st15, .st16 {
        stroke-width: 6px;
      }

      .st9, .st16 {
        fill: #0039a6;
      }

      .st3, .st12, .st6 {
        stroke-linecap: round;
      }

      .st5 {
        stroke: #070707;
      }

      .st11, .st13 {
        fill: none;
      }

      .st6 {
        stroke: #d52b1e;
      }

      .st16 {
        stroke: #0039a6;
      }
    </style>
  </defs>
  <rect class="st14" x="7.5" y="-.5" width="3073" height="2856"/>
  <circle class="st12" cx="1538" cy="1428" r="1295.77"/>
  <circle class="st1" cx="1538" cy="1428" r="1215"/>
  <circle cx="1530.5" cy="1428.5" r="1020.5"/>
  <g>
    <path d="M1353.56,2544.62l25.16,13.77c-7.05,14.15-16.07,23.92-27.06,29.3-10.99,5.38-23.84,6.63-38.55,3.75-18.2-3.57-31.93-12.72-41.21-27.46-9.28-14.73-11.8-32.88-7.57-54.45,4.47-22.81,13.84-39.37,28.09-49.69,14.25-10.31,30.98-13.58,50.17-9.82,16.76,3.29,29.41,10.92,37.93,22.88,5.08,7.08,8.1,16.41,9.07,27.99l-28.67,1.17c-.23-7.42-2.51-13.7-6.84-18.82-4.33-5.12-10.18-8.41-17.53-9.85-10.16-1.99-19.12.04-26.87,6.09s-13.24,17.24-16.44,33.57c-3.4,17.33-2.71,30.28,2.08,38.86,4.79,8.58,12.17,13.84,22.14,15.8,7.35,1.44,14.14.35,20.35-3.29,6.21-3.64,11.46-10.24,15.73-19.83Z"/>
    <path d="M1403.34,2604.33l9.72-139.34,28.13,1.96-3.83,54.84,55.12,3.84,3.83-54.84,28.13,1.96-9.72,139.33-28.13-1.96,4.25-60.92-55.12-3.84-4.25,60.92-28.13-1.96Z"/>
    <path d="M1548.99,2611.27l-2.1-139.66,28.19-.42,2.1,139.66-28.19.42Z"/>
    <path d="M1610.16,2610.25l-12.58-137.96,28.08-2.56,10.44,114.52,69.82-6.37,2.14,23.44-97.9,8.92Z"/>
    <path d="M1735.64,2597.12l-27.91-136.86,101.46-20.69,4.72,23.15-73.83,15.06,6.19,30.34,68.7-14.01,4.7,23.06-68.7,14.01,7.6,37.25,76.44-15.59,4.7,23.06-104.07,21.23Z"/>
  </g>
  <g>
    <path d="M1079.17,475.57l-49.78-117.29,49.84-21.16c12.53-5.32,22.09-8.13,28.66-8.44,6.58-.3,12.71,1.51,18.41,5.45,5.7,3.94,10.02,9.38,12.96,16.31,3.74,8.8,4.23,17.17,1.49,25.1-2.74,7.93-8.94,14.83-18.6,20.69,6.39.81,12.01,2.3,16.86,4.46,4.85,2.16,12.04,6.6,21.56,13.32l24.03,16.8-28.32,12.02-27.95-18.25c-9.95-6.54-16.55-10.52-19.8-11.94-3.25-1.42-6.31-2.04-9.19-1.86-2.88.18-7.04,1.43-12.48,3.74l-4.8,2.04,20.78,48.96-23.68,10.05ZM1074.12,397.83l17.52-7.44c11.36-4.82,18.25-8.31,20.67-10.47,2.42-2.16,3.93-4.75,4.54-7.78.6-3.03.16-6.3-1.33-9.82-1.68-3.95-4.08-6.69-7.22-8.22-3.14-1.53-6.76-1.8-10.87-.81-2.03.55-7.85,2.86-17.45,6.94l-18.48,7.84,12.63,29.76Z"/>
    <path d="M1168.22,369.9c-3.77-12.42-5.08-23.4-3.93-32.96.89-7.05,2.98-13.77,6.27-20.16,3.3-6.39,7.44-11.65,12.42-15.77,6.62-5.52,14.89-9.79,24.81-12.81,17.96-5.46,34.03-4.25,48.2,3.61,14.17,7.87,24.27,21.73,30.3,41.57,5.98,19.68,5.31,36.71-2.01,51.07-7.32,14.37-19.94,24.27-37.84,29.71-18.13,5.51-34.22,4.36-48.28-3.45-14.06-7.81-24.04-21.41-29.93-40.82ZM1193.33,361.36c4.2,13.8,10.56,23.3,19.1,28.49,8.54,5.19,17.72,6.29,27.53,3.31,9.81-2.98,16.79-8.96,20.94-17.94,4.14-8.98,4.07-20.54-.23-34.68-4.25-13.97-10.48-23.46-18.69-28.48-8.22-5.01-17.4-5.98-27.54-2.9-10.15,3.08-17.27,9.05-21.36,17.89-4.1,8.85-4.01,20.28.25,34.31Z"/>
    <path d="M1294.5,266.33l25.32-4.57,12.27,67.91c1.95,10.78,3.52,17.71,4.73,20.78,2.01,4.94,5.33,8.59,9.97,10.96,4.64,2.37,10.49,2.92,17.56,1.64,7.18-1.3,12.34-3.74,15.46-7.34,3.12-3.6,4.66-7.6,4.63-12.01-.03-4.41-.94-11.58-2.73-21.5l-12.53-69.36,25.32-4.57,11.9,65.86c2.72,15.05,3.96,25.81,3.71,32.27-.25,6.46-1.82,12.16-4.73,17.1s-7.21,9.24-12.91,12.89-13.51,6.37-23.43,8.16c-11.97,2.16-21.3,2.42-27.99.77s-12.22-4.36-16.61-8.13c-4.39-3.77-7.59-7.98-9.61-12.62-2.95-6.89-5.69-17.34-8.23-31.37l-12.08-66.88Z"/>
    <path d="M1436.81,371.18l-7.44-127.2,24.99-1.46,57.03,81.9-4.97-84.94,23.86-1.4,7.44,127.2-25.77,1.51-56.13-79.95,4.85,82.95-23.86,1.4Z"/>
    <path d="M1565.48,238.1l46.92,3.15c10.58.71,18.59,2.06,24.03,4.05,7.31,2.7,13.44,7.03,18.38,12.99,4.94,5.96,8.53,13.1,10.76,21.41,2.23,8.31,2.95,18.42,2.15,30.33-.7,10.46-2.61,19.4-5.72,26.79-3.8,9.04-8.84,16.22-15.12,21.55-4.74,4.04-10.98,7.02-18.72,8.94-5.79,1.41-13.42,1.8-22.9,1.16l-48.3-3.24,8.53-127.13ZM1589.71,261.33l-5.65,84.2,19.16,1.29c7.17.48,12.37.42,15.6-.17,4.23-.76,7.8-2.29,10.72-4.6,2.91-2.3,5.43-6.24,7.54-11.82,2.12-5.58,3.5-13.28,4.16-23.11.66-9.83.3-17.43-1.08-22.81-1.38-5.38-3.54-9.64-6.46-12.8-2.92-3.16-6.75-5.42-11.48-6.78-3.53-1.05-10.53-1.93-20.99-2.63l-11.53-.77Z"/>
    <path d="M1677.53,374.5l24.46-125.05,24.57,4.81,34.84,93.52,16.33-83.51,23.46,4.59-24.46,125.05-25.33-4.96-34.46-91.41-15.95,81.54-23.46-4.59Z"/>
    <path d="M1795.85,399.11l38.96-121.31,89.95,28.89-6.59,20.52-65.46-21.02-8.64,26.89,60.91,19.56-6.56,20.44-60.91-19.56-10.6,33.02,67.77,21.77-6.56,20.44-92.27-29.63Z"/>
    <path d="M1928.64,446.19l42.43-96.99-34.64-15.15,8.64-19.75,92.77,40.58-8.64,19.75-34.56-15.12-42.43,96.99-23.57-10.31Z"/>
  </g>
  <path class="st2" d="M791.26,1207.63c-1.94-92.9,15.13-194.4,56.97-304.62,0,0,14.56,327.59,267.46,112.03,252.91-215.55,787.7-462.14,1184.93,25.3h0s-295.93-149.82-234.38,176.73c8.17,43.35,14.35,91.29,17.47,142.07,20.39,331.72-89.73,784.78-627.71,873.96h0s276.81-180.53-36.39-291.58c-254.47-90.23-619.94-331.33-628.36-733.89Z"/>
  <path class="st11" d="M1564.45,2171s69.35-81.93,11.37-164.53c0,0-29.01-50.79-128.1-87.45,0,0-756.4-260.28-600.19-893.11,0,0,38.84,107.87,139.3,98.33,0,0,58.49-.1,139.35-68.1,0,0,600.26-529.15,1073.05-80.43h0s-105.65-17.26-148.32,74.19c0,0-29.54,50.48-11.88,154.65,0,0,151.8,786.14-474.59,966.45Z"/>
  <path class="st4" d="M2199.24,975.72c-472.79-448.72-1073.05,80.43-1073.05,80.43-80.87,68-139.35,68.1-139.35,68.1-100.46,9.54-139.3-98.33-139.3-98.33-77.49,313.91,69.58,536.15,237.48,680.42,0,0,365.98,296.66,480.98-259.34l39-124s259.48-441.55,594.24-347.28Z"/>
  <polygon class="st5" points="1566.1 1069.43 1637.86 1274.57 1852.37 1273.56 1677.73 1405.32 1747.19 1612.48 1568.05 1484.4 1568.05 1484.4 1388.37 1615.17 1455.89 1407.37 1280.02 1277.25 1495.56 1276.24 1566.1 1069.43 1566.1 1069.43"/>
  <circle class="st3" cx="-228" cy="-1715" r="1295.77"/>
  <circle class="st15" cx="-228" cy="-1715" r="1215"/>
  <circle class="st0" cx="-235.5" cy="-1714.5" r="1020.5"/>
  <g>
    <path class="st0" d="M-412.44-598.38l25.16,13.77c-7.05,14.15-16.07,23.92-27.06,29.3-10.99,5.38-23.84,6.63-38.55,3.75-18.2-3.57-31.93-12.72-41.21-27.46-9.28-14.73-11.8-32.88-7.57-54.45,4.47-22.81,13.84-39.37,28.09-49.69,14.25-10.31,30.98-13.58,50.17-9.82,16.76,3.29,29.41,10.92,37.93,22.88,5.08,7.08,8.1,16.41,9.07,27.99l-28.67,1.17c-.23-7.42-2.51-13.7-6.84-18.82-4.33-5.12-10.18-8.41-17.53-9.85-10.16-1.99-19.12.04-26.87,6.09s-13.24,17.24-16.44,33.57c-3.4,17.33-2.71,30.28,2.08,38.86,4.79,8.58,12.17,13.84,22.14,15.8,7.35,1.44,14.14.35,20.35-3.29,6.21-3.64,11.46-10.24,15.73-19.83Z"/>
    <path class="st0" d="M-362.66-538.67l9.72-139.34,28.13,1.96-3.83,54.84,55.12,3.84,3.83-54.84,28.13,1.96-9.72,139.33-28.13-1.96,4.25-60.92-55.12-3.84-4.25,60.92-28.13-1.96Z"/>
    <path class="st0" d="M-217.01-531.73l-2.1-139.66,28.19-.42,2.1,139.66-28.19.42Z"/>
    <path class="st0" d="M-155.84-532.75l-12.58-137.96,28.08-2.56,10.44,114.52,69.82-6.37,2.14,23.44-97.9,8.92Z"/>
    <path class="st0" d="M-30.36-545.88l-27.91-136.86,101.46-20.69,4.72,23.15-73.83,15.06,6.19,30.34,68.7-14.01,4.7,23.06-68.7,14.01,7.6,37.25,76.44-15.59,4.7,23.06-104.07,21.23Z"/>
  </g>
  <g>
    <path class="st0" d="M-686.83-2667.43l-49.78-117.29,49.84-21.16c12.53-5.32,22.09-8.13,28.66-8.44,6.58-.3,12.71,1.51,18.41,5.45,5.7,3.94,10.02,9.38,12.96,16.31,3.74,8.8,4.23,17.17,1.49,25.1-2.74,7.93-8.94,14.83-18.6,20.69,6.39.81,12.01,2.3,16.86,4.46,4.85,2.16,12.04,6.6,21.56,13.32l24.03,16.8-28.32,12.02-27.95-18.25c-9.95-6.54-16.55-10.52-19.8-11.94-3.25-1.42-6.31-2.04-9.19-1.86-2.88.18-7.04,1.43-12.48,3.74l-4.8,2.04,20.78,48.96-23.68,10.05ZM-691.88-2745.17l17.52-7.44c11.36-4.82,18.25-8.31,20.67-10.47,2.42-2.16,3.93-4.75,4.54-7.78.6-3.03.16-6.3-1.33-9.82-1.68-3.95-4.08-6.69-7.22-8.22-3.14-1.53-6.76-1.8-10.87-.81-2.03.55-7.85,2.86-17.45,6.94l-18.48,7.84,12.63,29.76Z"/>
    <path class="st0" d="M-597.78-2773.1c-3.77-12.42-5.08-23.4-3.93-32.96.89-7.05,2.98-13.77,6.27-20.16,3.3-6.39,7.44-11.65,12.42-15.77,6.62-5.52,14.89-9.79,24.81-12.81,17.96-5.46,34.03-4.25,48.2,3.61,14.17,7.87,24.27,21.73,30.3,41.57,5.98,19.68,5.31,36.71-2.01,51.07-7.32,14.37-19.94,24.27-37.84,29.71-18.13,5.51-34.22,4.36-48.28-3.45-14.06-7.81-24.04-21.41-29.93-40.82ZM-572.67-2781.64c4.2,13.8,10.56,23.3,19.1,28.49,8.54,5.19,17.72,6.29,27.53,3.31,9.81-2.98,16.79-8.96,20.94-17.94,4.14-8.98,4.07-20.54-.23-34.68-4.25-13.97-10.48-23.46-18.69-28.48-8.22-5.01-17.4-5.98-27.54-2.9-10.15,3.08-17.27,9.05-21.36,17.89-4.1,8.85-4.01,20.28.25,34.31Z"/>
    <path class="st0" d="M-471.5-2876.67l25.32-4.57,12.27,67.91c1.95,10.78,3.52,17.71,4.73,20.78,2.01,4.94,5.33,8.59,9.97,10.96,4.64,2.37,10.49,2.92,17.56,1.64,7.18-1.3,12.34-3.74,15.46-7.34,3.12-3.6,4.66-7.6,4.63-12.01-.03-4.41-.94-11.58-2.73-21.5l-12.53-69.36,25.32-4.57,11.9,65.86c2.72,15.05,3.96,25.81,3.71,32.27-.25,6.46-1.82,12.16-4.73,17.1s-7.21,9.24-12.91,12.89-13.51,6.37-23.43,8.16c-11.97,2.16-21.3,2.42-27.99.77s-12.22-4.36-16.61-8.13c-4.39-3.77-7.59-7.98-9.61-12.62-2.95-6.89-5.69-17.34-8.23-31.37l-12.08-66.88Z"/>
    <path class="st0" d="M-329.19-2771.82l-7.44-127.2,24.99-1.46,57.03,81.9-4.97-84.94,23.86-1.4,7.44,127.2-25.77,1.51-56.13-79.95,4.85,82.95-23.86,1.4Z"/>
    <path class="st0" d="M-200.52-2904.9l46.92,3.15c10.58.71,18.59,2.06,24.03,4.05,7.31,2.7,13.44,7.03,18.38,12.99,4.94,5.96,8.53,13.1,10.76,21.41,2.23,8.31,2.95,18.42,2.15,30.33-.7,10.46-2.61,19.4-5.72,26.79-3.8,9.04-8.84,16.22-15.12,21.55-4.74,4.04-10.98,7.02-18.72,8.94-5.79,1.41-13.42,1.8-22.9,1.16l-48.3-3.24,8.53-127.13ZM-176.29-2881.67l-5.65,84.2,19.16,1.29c7.17.48,12.37.42,15.6-.17,4.23-.76,7.8-2.29,10.72-4.6,2.91-2.3,5.43-6.24,7.54-11.82,2.12-5.58,3.5-13.28,4.16-23.11.66-9.83.3-17.43-1.08-22.81-1.38-5.38-3.54-9.64-6.46-12.8-2.92-3.16-6.75-5.42-11.48-6.78-3.53-1.05-10.53-1.93-20.99-2.63l-11.53-.77Z"/>
    <path class="st0" d="M-88.47-2768.5l24.46-125.05,24.57,4.81,34.84,93.52,16.33-83.51,23.46,4.59-24.46,125.05-25.33-4.96-34.46-91.41-15.95,81.54-23.46-4.59Z"/>
    <path class="st0" d="M29.85-2743.89l38.96-121.31,89.95,28.89-6.59,20.52-65.46-21.02-8.64,26.89,60.91,19.56-6.56,20.44-60.91-19.56-10.6,33.02,67.77,21.77-6.56,20.44-92.27-29.63Z"/>
    <path class="st0" d="M162.64-2696.81l42.43-96.99-34.64-15.15,8.64-19.75,92.77,40.58-8.64,19.75-34.56-15.12-42.43,96.99-23.57-10.31Z"/>
  </g>
  <path class="st10" d="M-974.74-1935.37c-1.94-92.9,15.13-194.4,56.97-304.62,0,0,14.56,327.59,267.46,112.03,252.91-215.55,787.7-462.14,1184.93,25.3h0s-295.93-149.82-234.38,176.73c8.17,43.35,14.35,91.29,17.47,142.07,20.39,331.72-89.73,784.78-627.71,873.96h0s276.81-180.53-36.39-291.58c-254.47-90.23-619.94-331.33-628.36-733.89Z"/>
  <path class="st13" d="M-201.55-972s69.35-81.93,11.37-164.53c0,0-29.01-50.79-128.1-87.45,0,0-756.4-260.28-600.19-893.11,0,0,38.84,107.87,139.3,98.33,0,0,58.49-.1,139.35-68.1,0,0,600.26-529.15,1073.05-80.43h0s-105.65-17.26-148.32,74.19c0,0-29.54,50.48-11.88,154.65,0,0,151.8,786.14-474.59,966.45Z"/>
  <path class="st7" d="M433.24-2167.28c-472.79-448.72-1073.05,80.43-1073.05,80.43-80.87,68-139.35,68.1-139.35,68.1-100.46,9.54-139.3-98.33-139.3-98.33-77.49,313.91,69.58,536.15,237.48,680.42,0,0,365.98,296.66,480.98-259.34l39-124s259.48-441.55,594.24-347.28Z"/>
  <polygon class="st5" points="-199.9 -2073.57 -128.14 -1868.43 86.37 -1869.44 -88.27 -1737.68 -18.81 -1530.52 -197.95 -1658.6 -197.95 -1658.6 -377.63 -1527.83 -310.11 -1735.63 -485.98 -1865.75 -270.44 -1866.76 -199.9 -2073.57 -199.9 -2073.57"/>
  <circle class="st6" cx="3266" cy="-1715" r="1295.77"/>
  <circle class="st16" cx="3266" cy="-1715" r="1215"/>
  <circle class="st0" cx="3258.5" cy="-1714.5" r="1020.5"/>
  <g>
    <path class="st0" d="M3081.56-598.38l25.16,13.77c-7.05,14.15-16.07,23.92-27.06,29.3-10.99,5.38-23.84,6.63-38.55,3.75-18.2-3.57-31.93-12.72-41.21-27.46-9.28-14.73-11.8-32.88-7.57-54.45,4.47-22.81,13.84-39.37,28.09-49.69,14.25-10.31,30.98-13.58,50.17-9.82,16.76,3.29,29.41,10.92,37.93,22.88,5.08,7.08,8.1,16.41,9.07,27.99l-28.67,1.17c-.23-7.42-2.51-13.7-6.84-18.82-4.33-5.12-10.18-8.41-17.53-9.85-10.16-1.99-19.12.04-26.87,6.09s-13.24,17.24-16.44,33.57c-3.4,17.33-2.71,30.28,2.08,38.86,4.79,8.58,12.17,13.84,22.14,15.8,7.35,1.44,14.14.35,20.35-3.29,6.21-3.64,11.46-10.24,15.73-19.83Z"/>
    <path class="st0" d="M3131.34-538.67l9.72-139.34,28.13,1.96-3.83,54.84,55.12,3.84,3.83-54.84,28.13,1.96-9.72,139.33-28.13-1.96,4.25-60.92-55.12-3.84-4.25,60.92-28.13-1.96Z"/>
    <path class="st0" d="M3276.99-531.73l-2.1-139.66,28.19-.42,2.1,139.66-28.19.42Z"/>
    <path class="st0" d="M3338.16-532.75l-12.58-137.96,28.08-2.56,10.44,114.52,69.82-6.37,2.14,23.44-97.9,8.92Z"/>
    <path class="st0" d="M3463.64-545.88l-27.91-136.86,101.46-20.69,4.72,23.15-73.83,15.06,6.19,30.34,68.7-14.01,4.7,23.06-68.7,14.01,7.6,37.25,76.44-15.59,4.7,23.06-104.07,21.23Z"/>
  </g>
  <g>
    <path class="st0" d="M2807.17-2667.43l-49.78-117.29,49.84-21.16c12.53-5.32,22.09-8.13,28.66-8.44,6.58-.3,12.71,1.51,18.41,5.45,5.7,3.94,10.02,9.38,12.96,16.31,3.74,8.8,4.23,17.17,1.49,25.1-2.74,7.93-8.94,14.83-18.6,20.69,6.39.81,12.01,2.3,16.86,4.46,4.85,2.16,12.04,6.6,21.56,13.32l24.03,16.8-28.32,12.02-27.95-18.25c-9.95-6.54-16.55-10.52-19.8-11.94-3.25-1.42-6.31-2.04-9.19-1.86-2.88.18-7.04,1.43-12.48,3.74l-4.8,2.04,20.78,48.96-23.68,10.05ZM2802.12-2745.17l17.52-7.44c11.36-4.82,18.25-8.31,20.67-10.47,2.42-2.16,3.93-4.75,4.54-7.78.6-3.03.16-6.3-1.33-9.82-1.68-3.95-4.08-6.69-7.22-8.22-3.14-1.53-6.76-1.8-10.87-.81-2.03.55-7.85,2.86-17.45,6.94l-18.48,7.84,12.63,29.76Z"/>
    <path class="st0" d="M2896.22-2773.1c-3.77-12.42-5.08-23.4-3.93-32.96.89-7.05,2.98-13.77,6.27-20.16,3.3-6.39,7.44-11.65,12.42-15.77,6.62-5.52,14.89-9.79,24.81-12.81,17.96-5.46,34.03-4.25,48.2,3.61,14.17,7.87,24.27,21.73,30.3,41.57,5.98,19.68,5.31,36.71-2.01,51.07-7.32,14.37-19.94,24.27-37.84,29.71-18.13,5.51-34.22,4.36-48.28-3.45-14.06-7.81-24.04-21.41-29.93-40.82ZM2921.33-2781.64c4.2,13.8,10.56,23.3,19.1,28.49,8.54,5.19,17.72,6.29,27.53,3.31,9.81-2.98,16.79-8.96,20.94-17.94,4.14-8.98,4.07-20.54-.23-34.68-4.25-13.97-10.48-23.46-18.69-28.48-8.22-5.01-17.4-5.98-27.54-2.9-10.15,3.08-17.27,9.05-21.36,17.89-4.1,8.85-4.01,20.28.25,34.31Z"/>
    <path class="st0" d="M3022.5-2876.67l25.32-4.57,12.27,67.91c1.95,10.78,3.52,17.71,4.73,20.78,2.01,4.94,5.33,8.59,9.97,10.96,4.64,2.37,10.49,2.92,17.56,1.64,7.18-1.3,12.34-3.74,15.46-7.34,3.12-3.6,4.66-7.6,4.63-12.01-.03-4.41-.94-11.58-2.73-21.5l-12.53-69.36,25.32-4.57,11.9,65.86c2.72,15.05,3.96,25.81,3.71,32.27-.25,6.46-1.82,12.16-4.73,17.1s-7.21,9.24-12.91,12.89-13.51,6.37-23.43,8.16c-11.97,2.16-21.3,2.42-27.99.77s-12.22-4.36-16.61-8.13c-4.39-3.77-7.59-7.98-9.61-12.62-2.95-6.89-5.69-17.34-8.23-31.37l-12.08-66.88Z"/>
    <path class="st0" d="M3164.81-2771.82l-7.44-127.2,24.99-1.46,57.03,81.9-4.97-84.94,23.86-1.4,7.44,127.2-25.77,1.51-56.13-79.95,4.85,82.95-23.86,1.4Z"/>
    <path class="st0" d="M3293.48-2904.9l46.92,3.15c10.58.71,18.59,2.06,24.03,4.05,7.31,2.7,13.44,7.03,18.38,12.99,4.94,5.96,8.53,13.1,10.76,21.41,2.23,8.31,2.95,18.42,2.15,30.33-.7,10.46-2.61,19.4-5.72,26.79-3.8,9.04-8.84,16.22-15.12,21.55-4.74,4.04-10.98,7.02-18.72,8.94-5.79,1.41-13.42,1.8-22.9,1.16l-48.3-3.24,8.53-127.13ZM3317.71-2881.67l-5.65,84.2,19.16,1.29c7.17.48,12.37.42,15.6-.17,4.23-.76,7.8-2.29,10.72-4.6,2.91-2.3,5.43-6.24,7.54-11.82,2.12-5.58,3.5-13.28,4.16-23.11.66-9.83.3-17.43-1.08-22.81-1.38-5.38-3.54-9.64-6.46-12.8-2.92-3.16-6.75-5.42-11.48-6.78-3.53-1.05-10.53-1.93-20.99-2.63l-11.53-.77Z"/>
    <path class="st0" d="M3405.53-2768.5l24.46-125.05,24.57,4.81,34.84,93.52,16.33-83.51,23.46,4.59-24.46,125.05-25.33-4.96-34.46-91.41-15.95,81.54-23.46-4.59Z"/>
    <path class="st0" d="M3523.85-2743.89l38.96-121.31,89.95,28.89-6.59,20.52-65.46-21.02-8.64,26.89,60.91,19.56-6.56,20.44-60.91-19.56-10.6,33.02,67.77,21.77-6.56,20.44-92.27-29.63Z"/>
    <path class="st0" d="M3656.64-2696.81l42.43-96.99-34.64-15.15,8.64-19.75,92.77,40.58-8.64,19.75-34.56-15.12-42.43,96.99-23.57-10.31Z"/>
  </g>
  <g>
    <path class="st8" d="M2519.26-1935.37c-1.94-92.9,15.13-194.4,56.97-304.62,0,0,14.56,327.59,267.46,112.03,252.91-215.55,787.7-462.14,1184.93,25.3h0s-295.93-149.82-234.38,176.73c8.17,43.35,14.35,91.29,17.47,142.07,20.39,331.72-89.73,784.78-627.71,873.96h0s276.81-180.53-36.39-291.58c-254.47-90.23-619.94-331.33-628.36-733.89Z"/>
    <path class="st13" d="M3292.45-972s69.35-81.93,11.37-164.53c0,0-29.01-50.79-128.1-87.45,0,0-756.4-260.28-600.19-893.11,0,0,38.84,107.87,139.3,98.33,0,0,58.49-.1,139.35-68.1,0,0,600.26-529.15,1073.05-80.43h0s-105.65-17.26-148.32,74.19c0,0-29.54,50.48-11.88,154.65,0,0,151.8,786.14-474.59,966.45Z"/>
    <path class="st9" d="M3927.24-2167.28c-472.79-448.72-1073.05,80.43-1073.05,80.43-80.87,68-139.35,68.1-139.35,68.1-100.46,9.54-139.3-98.33-139.3-98.33-77.49,313.91,69.58,536.15,237.48,680.42,0,0,365.98,296.66,480.98-259.34l39-124s259.48-441.55,594.24-347.28Z"/>
    <polygon class="st5" points="3294.1 -2073.57 3365.86 -1868.43 3580.37 -1869.44 3405.73 -1737.68 3475.19 -1530.52 3296.05 -1658.6 3296.05 -1658.6 3116.37 -1527.83 3183.89 -1735.63 3008.02 -1865.75 3223.56 -1866.76 3294.1 -2073.57 3294.1 -2073.57"/>
  </g>
</svg>
